<?xml version="1.0" encoding="utf-8"?>
<!-- Generator: Adobe Illustrator 27.0.0, SVG Export Plug-In . SVG Version: 6.00 Build 0)  -->
<svg version="1.1" id="Layer_1" xmlns="http://www.w3.org/2000/svg" xmlns:xlink="http://www.w3.org/1999/xlink" x="0px" y="0px"
	 viewBox="0 0 527.7 294.5" style="enable-background:new 0 0 527.7 294.5;" xml:space="preserve">
<style type="text/css">
	.st0{fill:#EC2127;}
	.st1{fill:#2E358F;}
	.st2{fill:#FFFFFF;}
</style>
<g id="Layer_2_00000133525069752089449910000004966907693108264614_">
	<g id="Layer_1-2">
		<path class="st0" d="M0,43.9v-0.8C2.4,29.1,3.7,14,6.2,0h70.1c-2,14.7-3.6,29.8-6.2,43.9H0z"/>
		<path class="st0" d="M46.9,51.6c7.3,0.3,14.9,0.3,22.5,0.2c-10.8,78.5-22.2,156.5-32.9,235h-23c10.8-78.3,22-156.3,32.9-234.5
			C46.3,52,46.5,51.7,46.9,51.6L46.9,51.6z"/>
		<path class="st1" d="M87.1,1h70.3c-2.1,14.6-4.1,29.2-6,43.9H80.8c2.2-14.2,4-28.8,6-43.2C86.8,1.4,86.8,1,87.1,1L87.1,1z"/>
		<path class="st1" d="M79.6,52.1c6.2,0.6,19.7-1.6,26.7-0.2c2.3,0.5,5.7,3.1,8,4.7c16,11.3,33.7,27.7,32.2,55.4
			c-0.6,11.2-5.1,20.1-10.5,27.4c-0.4,0.6-2.2,3.1-2.2,3c0,0.4,3.8,4.7,4.2,5.2c4.4,5.5,7.7,11.8,9.7,18.5c2.8,9.9,2,22.9-1.5,32.2
			c-5.7,15.1-17.8,26.5-30.9,35.2c-1.8,1.2-4.4,3.2-5.7,3.5c-3.7,0.9-8.7,0-12.7,0H84.1c-0.1-0.6,0.7-1,1-1.2
			c17.2-11.9,37.4-26.7,37.4-55.6c0-8.8-2.2-15.5-4.7-22.2c-4,2.4-7.6,5.1-11.5,7.5H80.8c-0.2-0.6,1.6-1.7,2.7-2.5
			c8.6-5.7,16.5-12.5,23.4-20.2c-6.5-7.8-15-13.6-24.2-18.7c7.8,0.6,19-1.6,26.7-0.2c2.7,0.5,4.2,2.9,6.2,3.5
			c6.9-16.1,2.7-35.8-4.5-47.2C103.5,67.9,91.5,58.7,79.6,52.1z"/>
		<path class="st1" d="M53.6,243.5H124c-2.1,14.6-4.1,29.2-6,43.9H47.7c1.6-14.7,3.9-28.7,5.7-43.2
			C53.4,243.9,53.4,243.5,53.6,243.5L53.6,243.5z"/>
		<path class="st2" d="M252.1,230.1c-0.6-7.5-3.5-13.4-8.7-17.9s-11.9-6.7-20.1-6.6c-10,0-17.9,3.3-23.7,9.8
			c-5.8,6.6-8.7,15.5-8.7,26.8c0,11.4,2.9,20.4,8.9,27.2s13.8,10.1,23.8,10.1c5.7,0.1,11.4-1.2,16.4-3.9c4.5-2.5,8.1-6.4,10.1-11.1
			c1.3-3.1,2.1-6.3,2.4-9.7h-15.1c-0.7,3.2-1.7,5.6-3,7c-2.5,3-6,4.5-10.6,4.5c-5.2,0.2-10.2-2.3-13.3-6.5c-3.3-4.4-5-10.3-5-17.7
			c0-7.2,1.6-12.9,4.8-17.3c2.9-4.2,7.7-6.6,12.8-6.5c5,0,8.8,1.6,11.3,4.8c1.4,2,2.4,4.4,2.9,6.8L252.1,230.1z M263.6,229.4
			c-4.9,5.3-7.3,12.4-7.3,21.1c0,8.7,2.4,15.6,7.3,20.8c4.9,5.1,11.4,7.7,19.6,7.7c8.2,0,14.7-2.6,19.5-7.9
			c4.8-5.2,7.2-12.3,7.2-21.1c0-8.5-2.5-15.4-7.5-20.6c-5-5.2-11.5-7.9-19.6-7.9C274.9,221.5,268.5,224.2,263.6,229.4L263.6,229.4z
			 M292.8,237.8c2.4,3.2,3.6,7.4,3.6,12.6s-1.2,9.5-3.6,12.6c-2.3,3-5.9,4.7-9.7,4.6c-3.8,0.1-7.5-1.6-9.9-4.6
			c-2.5-3.1-3.7-7.1-3.7-12.3c0-5.4,1.2-9.7,3.7-12.9c2.3-3.1,6.1-4.9,10-4.8C287,232.9,290.6,234.7,292.8,237.8L292.8,237.8z
			 M317.2,278H331v-72.5h-13.8V278z M340.4,278h13.8v-72.5h-13.8V278z M413.3,253.2c0.1-0.8,0.1-1.5,0.1-2.3c0-9.2-2.3-16.5-7-21.8
			c-4.7-5.3-11.1-7.9-19.3-7.9c-8.1,0-14.5,2.6-19.4,7.9c-4.8,5.2-7.3,12.2-7.3,21c0,8.9,2.5,16,7.5,21.3c5,5.2,11.8,7.9,20.3,7.9
			c13.7,0,21.8-6.3,24.3-18.9l-14.1-0.5c-0.6,1.6-1.4,3.2-2.5,4.5c-1.9,1.9-4.7,2.9-8.3,2.9c-8.1,0-12.5-4.6-13.2-13.9L413.3,253.2z
			 M375.2,242.6c1.5-6.6,5.4-9.9,11.9-9.9c6.7,0,10.6,3.3,11.7,10L375.2,242.6L375.2,242.6L375.2,242.6z M455.2,223v3.5
			c-3.4-3.4-8-5.2-13.5-5.2c-7.3,0-13.2,2.5-17.7,7.4c-4.4,5-6.7,11.5-6.7,19.6c0,8.1,2.2,14.6,6.5,19.5s10.1,7.4,17.3,7.4
			c5.7,0,10.3-1.7,13.8-5.2c0.1,1.2,0.1,2.2,0.1,3.1c0,3.9-0.7,6.5-2.1,7.9c-2,2-5.4,3-10.3,3c-6.5,0-9.9-2.3-10.2-6.8h-14.2
			c0.4,6.6,2.9,11.1,7.3,13.6s10.4,3.7,17.9,3.7c11.7,0,19.2-3,22.7-8.9c1.6-2.8,2.4-7.5,2.4-14.1V223L455.2,223z M443.2,264
			c-3.5,0.1-6.8-1.5-8.9-4.3c-2.2-2.8-3.3-6.6-3.3-11.4s1.2-8.6,3.5-11.4c2.2-2.8,5.6-4.4,9.2-4.3c7.6,0,11.4,5.1,11.4,15.4v0.7
			C455,258.9,451.1,264.1,443.2,264L443.2,264z M527.6,253.2c0.1-0.8,0.1-1.5,0.1-2.3c0-9.2-2.3-16.5-7-21.8s-11.1-7.9-19.2-7.9
			c-8.1,0-14.5,2.6-19.4,7.9c-4.8,5.2-7.3,12.2-7.3,21c0,8.9,2.5,16,7.5,21.3s11.8,7.9,20.3,7.9c13.7,0,21.8-6.3,24.3-18.9
			l-14.1-0.5c-0.6,1.6-1.4,3.2-2.5,4.5c-1.9,1.9-4.7,2.9-8.2,2.9c-8.1,0-12.6-4.6-13.2-13.9L527.6,253.2z M489.5,242.6
			c1.5-6.6,5.4-9.9,11.9-9.9c6.7,0,10.6,3.3,11.7,10L489.5,242.6L489.5,242.6L489.5,242.6z"/>
		<path class="st2" d="M193.5,180.4h31.1c3.3,0.1,6.6-0.1,9.9-0.6c3.2-0.6,6.3-1.9,8.8-4c4.8-3.8,7.2-9.3,7.2-16.4
			c0-8.9-3.6-14.6-10.9-17.1c5.5-2.4,8.2-7.1,8.2-14.1c0-7.1-2.5-12.3-7.4-15.4c-3.7-2.4-9.8-3.6-18.3-3.6h-28.7V180.4L193.5,180.4z
			 M221.5,121.1c2.1-0.1,4.3,0.1,6.4,0.6c3.7,1,5.5,3.6,5.5,7.8c0,5.6-3.9,8.4-11.7,8.4h-13.7v-16.7L221.5,121.1z M222.3,149.3
			c4.6,0,7.8,0.6,9.7,1.8c2.7,1.7,4.2,4.7,4.1,7.8c0,3.2-1,5.6-3.1,7.1s-5.3,2.3-9.7,2.3h-15.1v-18.9H222.3z M259,180.4h13.9v-24.5
			c-0.1-3.3,0.2-6.6,0.8-9.8c0.5-2.2,1.8-4.2,3.6-5.6c2.2-1.8,5.7-2.6,10.6-2.6h2.8v-13c-1.2-0.1-2.4-0.1-3.4-0.1
			c-3.9,0-6.9,0.5-9,1.6c-2.4,1.4-4.4,3.4-5.7,5.9v-6.8h-13.5L259,180.4L259,180.4z M296,120.8h13.9V108H296V120.8L296,120.8z
			 M296,180.4h13.9v-55H296V180.4z M322.4,125.4h-7.8v11h7.8V160c-0.1,4.2,0,8.4,0.4,12.6c0.2,1.6,0.8,3.1,1.8,4.4
			c1.9,2.4,5.1,3.8,9.6,4.1c1.2,0.1,2.9,0.1,4.8,0.1c0.6,0,2.2,0,4.8-0.1l4-0.1v-11.6H347c-5.6,0-8.9-0.3-9.6-0.9s-1.1-2.2-1.1-4.7
			v-27.3H348v-11h-11.8v-16.8h-13.8L322.4,125.4L322.4,125.4z M354.3,120.8h13.9V108h-13.9L354.3,120.8L354.3,120.8z M354.3,180.4
			h13.9v-55h-13.9L354.3,180.4L354.3,180.4z M423.4,142.1c-0.1-2.9-0.9-5.7-2.2-8.2c-3.9-6.7-11.1-10-21.7-10
			c-7.1,0-12.8,1.7-17.1,5c-4.2,3.1-6.5,8-6.4,13.2c-0.2,4,1.3,7.9,4.2,10.7c2.8,2.7,8.4,4.6,16.7,5.6c4.3,0.5,7.2,0.8,8.6,1
			c1.3,0.1,2.5,0.6,3.6,1.4c0.2,0.2,0.4,0.4,0.5,0.7c0.6,0.8,0.9,1.8,0.8,2.8c0,4.2-3.3,6.3-9.9,6.3c-7.3,0-11.3-2.8-11.9-8.5h-14.3
			c0.7,4.8,1.9,8.4,3.6,10.7c4.3,6,11.7,9,22.1,9c7.6,0,13.6-1.6,17.9-4.9c4.3-3.3,6.4-7.8,6.4-13.6c0-5.3-1.7-9.4-5.1-12.2
			c-3.4-2.8-8.5-4.5-15.4-5.1c-6.9-0.6-11-1.3-12.4-2.1c-1.1-0.7-1.7-1.9-1.6-3.2c0-3.9,3.1-5.8,9.4-5.8c6.4,0,9.9,2.5,10.6,7.4
			H423.4z M431.4,180.4h13.9v-28.3c0-4.7,0.3-7.9,1-9.6c0.8-2.1,2.3-3.8,4.1-5.1c1.9-1.3,4.1-2,6.3-2c3.2,0,5.6,1.1,7,3.2
			c0.6,0.9,1.1,2,1.2,3.1c0.3,2,0.4,4.1,0.4,6.2l0.1,32.5h13.8v-31.6c0-5.8-0.4-9.9-1.1-12.4c-0.8-2.5-2.1-4.8-4-6.7
			c-3.6-3.7-8.4-5.5-14.4-5.5c-5.4-0.2-10.7,1.9-14.5,5.7v-22h-13.8L431.4,180.4L431.4,180.4z"/>
		<path class="st2" d="M188.6,14.5h18.7v58.8h14.5V14.5h18.6V2.2h-51.8V14.5z M245.9,73.3h13.9V45c0-4.7,0.3-7.9,1-9.6
			c0.8-2.1,2.3-3.8,4.1-5.1c1.9-1.3,4.1-2,6.3-2c3.2,0,5.6,1.1,7,3.2c0.6,0.9,1.1,2,1.2,3.1c0.3,2,0.4,4.1,0.4,6.2l0.1,32.5h13.8
			V41.7c0-5.8-0.4-9.9-1.1-12.4c-0.8-2.5-2.1-4.8-4-6.7c-3.6-3.7-8.3-5.5-14.4-5.5c-5.4-0.2-10.7,1.9-14.5,5.7v-22h-13.9V73.3z
			 M352.2,48.5c0.1-0.8,0.1-1.5,0.1-2.3c0-9.2-2.3-16.5-7-21.8s-11.1-7.9-19.3-7.9c-8.1,0-14.5,2.6-19.4,7.9s-7.3,12.2-7.3,21
			c0,9,2.5,16.1,7.5,21.3c5,5.2,11.8,7.9,20.3,7.9c13.7,0,21.8-6.3,24.3-18.9L337.5,55c-0.6,1.6-1.4,3.2-2.5,4.5
			c-1.9,1.9-4.7,2.9-8.2,2.9c-8.2,0-12.6-4.6-13.2-13.9L352.2,48.5z M314.1,37.8c1.5-6.6,5.4-9.9,11.9-9.9c6.7,0,10.6,3.3,11.7,10
			h-23.6V37.8L314.1,37.8z"/>
	</g>
</g>
</svg>
